<!DOCTYPE svg PUBLIC "-//W3C//DTD SVG 1.1//EN" "http://www.w3.org/Graphics/SVG/1.1/DTD/svg11.dtd">
<!-- Uploaded to: SVG Repo, www.svgrepo.com, Transformed by: SVG Repo Mixer Tools -->
<svg width="150px" height="150px" viewBox="-2.64 -2.64 29.28 29.28" xmlns="http://www.w3.org/2000/svg" fill="#ffffff" stroke="#ffffff" stroke-width="0.096">
<g id="SVGRepo_bgCarrier" stroke-width="0">
<rect x="-2.64" y="-2.64" width="29.28" height="29.28" rx="6.1488" fill="#e69e0f" strokewidth="0"/>
</g>
<g id="SVGRepo_tracerCarrier" stroke-linecap="round" stroke-linejoin="round"/>
<g id="SVGRepo_iconCarrier"> <g> <path fill="none" d="M0 0h24v24H0z"/> <path fill-rule="nonzero" d="M16 13l6.964 4.062-2.973.85 2.125 3.681-1.732 1-2.125-3.68-2.223 2.15L16 13zm-2-7h2v2h5a1 1 0 0 1 1 1v4h-2v-3H10v10h4v2H9a1 1 0 0 1-1-1v-5H6v-2h2V9a1 1 0 0 1 1-1h5V6zM4 14v2H2v-2h2zm0-4v2H2v-2h2zm0-4v2H2V6h2zm0-4v2H2V2h2zm4 0v2H6V2h2zm4 0v2h-2V2h2zm4 0v2h-2V2h2z"/> </g> </g>
</svg>